<?xml version="1.0" encoding="UTF-8" standalone="no"?>
<svg
   xmlns:dc="http://purl.org/dc/elements/1.1/"
   xmlns:cc="http://creativecommons.org/ns#"
   xmlns:rdf="http://www.w3.org/1999/02/22-rdf-syntax-ns#"
   xmlns:svg="http://www.w3.org/2000/svg"
   xmlns="http://www.w3.org/2000/svg"
   xmlns:sodipodi="http://sodipodi.sourceforge.net/DTD/sodipodi-0.dtd"
   xmlns:inkscape="http://www.inkscape.org/namespaces/inkscape"
   width="512"
   height="512"
   viewBox="0 0 1280 648"
   version="1.1"
   id="svg8"
   inkscape:version="1.0.2 (e86c870879, 2021-01-15)"
   sodipodi:docname="logo.svg"
   inkscape:export-filename="/home/user/eli/logo_512.png"
   inkscape:export-xdpi="96"
   inkscape:export-ydpi="96">
  <defs
     id="defs2">
    <inkscape:path-effect
       effect="powerstroke"
       id="path-effect883"
       is_visible="true"
       lpeversion="1"
       offset_points="0,2.32031"
       sort_points="true"
       interpolator_type="CubicBezierJohan"
       interpolator_beta="0.2"
       start_linecap_type="zerowidth"
       linejoin_type="extrp_arc"
       miter_limit="4"
       scale_width="1"
       end_linecap_type="zerowidth" />
    <inkscape:path-effect
       effect="bspline"
       id="path-effect881"
       is_visible="true"
       lpeversion="1"
       weight="33.333333"
       steps="2"
       helper_size="0"
       apply_no_weight="true"
       apply_with_weight="true"
       only_selected="false" />
    <inkscape:path-effect
       effect="powerstroke"
       id="path-effect877"
       is_visible="true"
       lpeversion="1"
       offset_points="0,2.32031"
       sort_points="true"
       interpolator_type="CubicBezierJohan"
       interpolator_beta="0.2"
       start_linecap_type="zerowidth"
       linejoin_type="extrp_arc"
       miter_limit="4"
       scale_width="1"
       end_linecap_type="zerowidth" />
    <inkscape:path-effect
       effect="bspline"
       id="path-effect875"
       is_visible="true"
       lpeversion="1"
       weight="33.333333"
       steps="2"
       helper_size="0"
       apply_no_weight="true"
       apply_with_weight="true"
       only_selected="false" />
    <inkscape:path-effect
       effect="powerstroke"
       id="path-effect871"
       is_visible="true"
       lpeversion="1"
       offset_points="0,2.32031"
       sort_points="true"
       interpolator_type="CubicBezierJohan"
       interpolator_beta="0.2"
       start_linecap_type="zerowidth"
       linejoin_type="extrp_arc"
       miter_limit="4"
       scale_width="1"
       end_linecap_type="zerowidth" />
    <inkscape:path-effect
       effect="bspline"
       id="path-effect869"
       is_visible="true"
       lpeversion="1"
       weight="33.333333"
       steps="2"
       helper_size="0"
       apply_no_weight="true"
       apply_with_weight="true"
       only_selected="false" />
    <inkscape:path-effect
       effect="powerstroke"
       id="path-effect861"
       is_visible="true"
       lpeversion="1"
       offset_points="0,9.745302"
       sort_points="true"
       interpolator_type="CubicBezierJohan"
       interpolator_beta="0.2"
       start_linecap_type="zerowidth"
       linejoin_type="extrp_arc"
       miter_limit="4"
       scale_width="1"
       end_linecap_type="zerowidth" />
    <inkscape:path-effect
       effect="bspline"
       id="path-effect859"
       is_visible="true"
       lpeversion="1"
       weight="33.333333"
       steps="2"
       helper_size="0"
       apply_no_weight="true"
       apply_with_weight="true"
       only_selected="false" />
    <inkscape:path-effect
       effect="powerstroke"
       id="path-effect855"
       is_visible="true"
       lpeversion="1"
       offset_points="0,2.32031"
       sort_points="true"
       interpolator_type="CubicBezierJohan"
       interpolator_beta="0.2"
       start_linecap_type="zerowidth"
       linejoin_type="extrp_arc"
       miter_limit="4"
       scale_width="1"
       end_linecap_type="zerowidth" />
    <inkscape:path-effect
       effect="bspline"
       id="path-effect853"
       is_visible="true"
       lpeversion="1"
       weight="33.333333"
       steps="2"
       helper_size="0"
       apply_no_weight="true"
       apply_with_weight="true"
       only_selected="false" />
    <inkscape:path-effect
       effect="powerstroke"
       id="path-effect849"
       is_visible="true"
       lpeversion="1"
       offset_points="0,2.32031"
       sort_points="true"
       interpolator_type="CubicBezierJohan"
       interpolator_beta="0.2"
       start_linecap_type="zerowidth"
       linejoin_type="extrp_arc"
       miter_limit="4"
       scale_width="1"
       end_linecap_type="zerowidth" />
    <inkscape:path-effect
       effect="powerstroke"
       id="path-effect837"
       is_visible="true"
       lpeversion="1"
       offset_points="0,2.32031"
       sort_points="true"
       interpolator_type="CubicBezierJohan"
       interpolator_beta="0.2"
       start_linecap_type="zerowidth"
       linejoin_type="extrp_arc"
       miter_limit="4"
       scale_width="1"
       end_linecap_type="zerowidth" />
  </defs>
  <sodipodi:namedview
     id="base"
     pagecolor="#ffffff"
     bordercolor="#666666"
     borderopacity="1.0"
     inkscape:pageopacity="0.0"
     inkscape:pageshadow="2"
     inkscape:zoom="1.6640625"
     inkscape:cx="256"
     inkscape:cy="256"
     inkscape:document-units="mm"
     inkscape:current-layer="layer1"
     inkscape:document-rotation="0"
     showgrid="false"
     inkscape:window-width="1920"
     inkscape:window-height="1020"
     inkscape:window-x="-1"
     inkscape:window-y="-1"
     inkscape:window-maximized="1" />
  <metadata
     id="metadata5">
    <rdf:RDF>
      <cc:Work
         rdf:about="">
        <dc:format>image/svg+xml</dc:format>
        <dc:type
           rdf:resource="http://purl.org/dc/dcmitype/StillImage" />
        <dc:title />
      </cc:Work>
    </rdf:RDF>
  </metadata>
  <g
     inkscape:label="Слой 1"
     inkscape:groupmode="layer"
     id="layer1">
    <path
       style="fill:#15d262;fill-opacity:1;fill-rule:nonzero;stroke:#15d262;stroke-width:19.5213;stroke-linecap:round;stroke-linejoin:round;stroke-miterlimit:4;stroke-dasharray:none;stroke-opacity:1"
       d="m 646.38972,912.24242 c 0,0 5.66211,7.93167 5.66211,7.93167 21.03364,-15.01509 54.00338,-38.56331 81.99365,-60.82819 23.29167,-18.52738 48.11327,-39.97444 68.09152,-62.65636 9.12586,-10.36086 17.46418,-21.22129 24.34651,-32.49757 6.5718,-10.76749 11.87977,-22.01719 15.26452,-33.68897 3.26985,-11.27559 4.74169,-22.93565 3.83088,-34.90715 -0.88601,-11.64552 -4.01471,-23.4306 -9.75962,-35.32169 -5.60321,-11.59761 -13.61931,-23.17082 -23.41505,-34.75089 -9.65689,-11.41593 -21.09249,-22.89575 -33.75011,-34.46231 -25.05072,-22.89141 -54.77001,-46.01811 -84.6796,-69.47263 -29.9777,-23.50793 -59.50773,-46.8586 -84.46031,-70.34056 -12.58735,-11.84548 -23.86553,-23.59216 -33.36549,-35.27337 -9.64715,-11.8622 -17.37873,-23.55728 -22.79512,-35.12338 -5.52164,-11.79082 -8.63606,-23.46769 -9.77043,-35.01796 -1.1674,-11.88665 -0.24047,-23.66328 2.34739,-35.29991 2.68382,-12.06811 7.15485,-23.98175 12.92388,-35.66504 6.04205,-12.2362 13.5191,-24.24114 21.86759,-35.89496 18.30955,-25.5587 41.44833,-50.26609 63.52206,-71.98501 26.48452,-26.05881 57.86339,-53.89907 78.0481,-71.801505 -19.64143,17.420585 -52.27221,46.028615 -78.54281,71.292925 -22.30411,21.44976 -45.88984,45.90352 -64.74268,71.2411 -8.60495,11.56476 -16.40002,23.53821 -22.79079,35.80886 -6.10094,11.71416 -10.96377,23.77745 -14.03088,36.12124 -2.95903,11.9088 -4.25772,24.12151 -3.36312,36.58548 0.87029,12.12534 3.81489,24.46856 9.30401,36.98305 5.37401,12.25207 13.1288,24.55899 22.76137,36.9394 9.48665,12.19286 20.75464,24.40632 33.28049,36.66036 24.80018,24.26203 54.1936,48.36018 83.72475,72.38376 29.61581,24.09245 58.52838,47.44657 82.73754,70.46765 12.19758,11.59897 22.98825,22.91674 31.93597,33.9914 9.09542,11.25746 16.11882,22.05892 20.79759,32.43987 4.74883,10.53663 7.07676,20.66495 7.53175,30.41394 0.46807,10.02902 -1.03844,19.83046 -4.11419,29.43947 -3.19508,9.98182 -8.10251,19.81048 -14.31187,29.46712 -6.50531,10.11689 -14.42889,20.02709 -23.25615,29.66658 -19.37874,21.16186 -43.58745,41.49638 -66.77203,59.48988 -27.26174,21.15777 -61.13522,45.04197 -81.71354,59.73203 0,0 5.66211,7.93167 5.66211,7.93167 z"
       id="path857"
       inkscape:path-effect="#path-effect859;#path-effect861"
       inkscape:original-d="M 646.38972,912.24242 C 758.74912,832.06686 871.089,751.8718 983.40938,671.65726 787.92342,574.90082 594.2654,478.12874 399.66416,381.3353 507.2285,285.96996 614.76904,190.58906 722.2922,95.186635" />
    <circle
       style="fill:#464196;fill-opacity:1;stroke:#464196;stroke-width:19.5212;stroke-linecap:round;stroke-linejoin:round;stroke-miterlimit:4;stroke-dasharray:none;stroke-dashoffset:4.21417;stroke-opacity:1"
       id="path863"
       cx="859.2113"
       cy="-51.177677"
       r="220.99606" />
    <ellipse
       style="fill:#211c69;fill-opacity:1;stroke:#211c69;stroke-width:19.5212;stroke-linecap:round;stroke-linejoin:round;stroke-miterlimit:4;stroke-dasharray:none;stroke-dashoffset:4.21417;stroke-opacity:1"
       id="path865"
       cx="946.27393"
       cy="-137.92271"
       rx="55.259678"
       ry="55.249016" />
    <ellipse
       style="fill:#15d262;fill-opacity:1;stroke:none;stroke-width:19.1563;stroke-linecap:round;stroke-linejoin:bevel;stroke-miterlimit:4;stroke-dasharray:none;stroke-dashoffset:4.21417;stroke-opacity:1"
       id="path885"
       cx="496.39786"
       cy="71.125702"
       rx="230.57516"
       ry="55.392418"
       transform="matrix(0.86047053,0.50950022,-0.5153849,0.85695881,0,0)" />
    <ellipse
       style="fill:#15d262;fill-opacity:1;stroke:none;stroke-width:19.1563;stroke-linecap:round;stroke-linejoin:bevel;stroke-miterlimit:4;stroke-dasharray:none;stroke-dashoffset:4.21417;stroke-opacity:1"
       id="path885-3"
       cx="540.72614"
       cy="668.34802"
       rx="230.57516"
       ry="55.392418"
       transform="matrix(0.87878445,-0.47721891,0.47118555,0.88203411,0,0)" />
    <ellipse
       style="fill:#15d262;fill-opacity:1;stroke:none;stroke-width:12.3891;stroke-linecap:round;stroke-linejoin:bevel;stroke-miterlimit:4;stroke-dasharray:none;stroke-dashoffset:4.21417;stroke-opacity:1"
       id="path885-6"
       cx="667.35956"
       cy="-428.44519"
       rx="126.48591"
       ry="42.235153"
       transform="matrix(0.60262089,0.79802761,-0.25968431,0.96569356,0,0)" />
  </g>
</svg>
